HIERARCHY
ROOT Hips
{
	OFFSET 0.000000 0.000000 0.000000
	CHANNELS 6 Xposition Yposition Zposition Xrotation Yrotation Zrotation
	JOINT LeftUpLeg_virtual
	{
		OFFSET 0.000000 0.000000 0.000000
		CHANNELS 3 Xrotation Yrotation Zrotation
		JOINT LeftUpLeg
		{
			OFFSET 11.394100 -6.187798 -0.413800
			CHANNELS 3 Xrotation Yrotation Zrotation
			JOINT LeftLeg
			{
				OFFSET 0.430247 -32.302673 3.732800
				CHANNELS 3 Xrotation Yrotation Zrotation
				JOINT LeftFoot
				{
					OFFSET -0.430247 -48.264931 -6.423300
					CHANNELS 3 Xrotation Yrotation Zrotation
					JOINT LeftToeBase
					{
						OFFSET 4.230900 -16.068199 23.438400
						CHANNELS 3 Xrotation Yrotation Zrotation
						JOINT LeftToe_End
						{
							OFFSET 4.510700 0.695400 19.974600
							CHANNELS 3 Xrotation Yrotation Zrotation
							End Site
							{
								OFFSET 0 0 0
							}
						}
					}
				}
			}
		}
	}
	JOINT RightUpLeg_virtual
	{
		OFFSET 0.000000 0.000000 0.000000
		CHANNELS 3 Xrotation Yrotation Zrotation
		JOINT RightUpLeg
		{
			OFFSET -11.333700 -6.187798 -0.413800
			CHANNELS 3 Xrotation Yrotation Zrotation
			JOINT RightLeg
			{
				OFFSET -0.430392 -32.302628 3.733000
				CHANNELS 3 Xrotation Yrotation Zrotation
				JOINT RightFoot
				{
					OFFSET 0.430392 -48.264973 -6.423500
					CHANNELS 3 Xrotation Yrotation Zrotation
					JOINT RightToeBase
					{
						OFFSET -4.230900 -16.068199 23.438400
						CHANNELS 3 Xrotation Yrotation Zrotation
						JOINT RightToe_End
						{
							OFFSET -4.510700 0.695400 19.974600
							CHANNELS 3 Xrotation Yrotation Zrotation
							End Site
							{
								OFFSET 0 0 0
							}
						}
					}
				}
			}
		}
	}
	JOINT Spine_virtual
	{
		OFFSET 0.000000 0.000000 0.000000
		CHANNELS 3 Xrotation Yrotation Zrotation
		JOINT Spine
		{
			OFFSET -0.002400 12.777504 0.315300
			CHANNELS 3 Xrotation Yrotation Zrotation
			JOINT Spine1
			{
				OFFSET -0.002067 5.816869 0.032633
				CHANNELS 3 Xrotation Yrotation Zrotation
				JOINT Spine1_split
				{
					OFFSET -0.002067 5.816869 0.032633
					CHANNELS 3 Xrotation Yrotation Zrotation
					JOINT Spine2
					{
						OFFSET -0.002067 5.816869 0.032633
						CHANNELS 3 Xrotation Yrotation Zrotation
						JOINT Neck_virtual
						{
							OFFSET 0.000000 0.000000 0.000000
							CHANNELS 3 Xrotation Yrotation Zrotation
							JOINT Neck
							{
								OFFSET -0.003700 21.199493 -0.826900
								CHANNELS 3 Xrotation Yrotation Zrotation
								JOINT Head
								{
									OFFSET 0.000000 20.442200 4.834800
									CHANNELS 3 Xrotation Yrotation Zrotation
									JOINT HeadTop_End
									{
										OFFSET 0.000000 34.668396 4.968400
										CHANNELS 3 Xrotation Yrotation Zrotation
										End Site
										{
											OFFSET 0 0 0
										}
									}
								}
							}
						}
						JOINT LeftShoulder_virtual
						{
							OFFSET 0.000000 0.000000 0.000000
							CHANNELS 3 Xrotation Yrotation Zrotation
							JOINT LeftShoulder
							{
								OFFSET 3.288150 8.794197 -1.372250
								CHANNELS 3 Xrotation Yrotation Zrotation
								JOINT LeftShoulder_split
								{
									OFFSET 3.288150 8.794197 -1.372250
									CHANNELS 3 Xrotation Yrotation Zrotation
									JOINT LeftArm
									{
										OFFSET 11.953299 -2.279007 -0.146200
										CHANNELS 3 Xrotation Yrotation Zrotation
										JOINT LeftForeArm
										{
											OFFSET 18.448900 0.000000 0.000000
											CHANNELS 3 Xrotation Yrotation Zrotation
											JOINT LeftHand
											{
												OFFSET 29.527798 0.000000 0.000000
												CHANNELS 3 Xrotation Yrotation Zrotation
												End Site
												{
													OFFSET 0 0 0
												}
											}
										}
									}
								}
							}
						}
						JOINT RightShoulder_virtual
						{
							OFFSET 0.000000 0.000000 0.000000
							CHANNELS 3 Xrotation Yrotation Zrotation
							JOINT RightShoulder
							{
								OFFSET -3.249400 8.794197 -1.372250
								CHANNELS 3 Xrotation Yrotation Zrotation
								JOINT RightShoulder_split
								{
									OFFSET -3.249400 8.794197 -1.372250
									CHANNELS 3 Xrotation Yrotation Zrotation
									JOINT RightArm
									{
										OFFSET -11.953299 -2.279007 -0.146200
										CHANNELS 3 Xrotation Yrotation Zrotation
										JOINT RightForeArm
										{
											OFFSET -18.448900 0.000000 0.000000
											CHANNELS 3 Xrotation Yrotation Zrotation
											JOINT RightHand
											{
												OFFSET -29.527802 0.000000 0.000000
												CHANNELS 3 Xrotation Yrotation Zrotation
												End Site
												{
													OFFSET 0 0 0
												}
											}
										}
									}
								}
							}
						}
					}
				}
			}
		}
	}
}
MOTION
Frames: 5
Frame Time: 0.03333333
-9.543555 74.783211 14.430119 0.000000 0.000000 0.000000 7.678463 35.346632 -3.521276 -87.081087 -4.634955 -32.363362 77.249501 -34.466367 13.955034 18.529077 8.167055 1.416856 0.533651 0.142233 0.329380 0.000000 0.000000 0.000000 9.819113 38.325701 -4.975624 17.125304 -35.105028 3.542772 59.019385 15.649442 -11.235379 -23.060467 0.593651 -7.367193 -49.824024 -14.056882 10.179859 0.000000 0.000000 0.000000 10.649198 43.050344 -6.642150 6.558747 13.519152 0.132758 3.168517 16.381664 0.029872 1.159971 1.416559 0.641078 0.000000 0.000000 0.000000 2.681298 15.385763 -0.514090 18.365446 -31.492459 3.388863 -22.669767 -36.313421 -1.591103 0.000000 0.000000 0.000000 2.730121 16.358808 -0.840946 2.120401 -4.623065 -6.397295 -3.088212 -8.638948 -2.663039 -32.880811 9.872901 -25.661164 50.236523 -3.100147 17.388772 0.000000 0.000000 0.000000 3.852131 16.453168 -1.051494 0.394116 8.250757 -15.372415 -5.359204 4.871708 3.065852 -17.622783 -19.785960 3.573207 -33.664141 29.748981 10.139893 0.000000 0.000000 0.000000 
-9.146537 75.153221 14.482037 0.000000 0.000000 0.000000 8.436599 33.725538 -3.876550 -86.557888 -4.657522 -30.568105 77.049206 -33.679065 13.673503 17.980075 7.604164 1.365475 0.027758 0.185699 0.787071 0.000000 0.000000 0.000000 10.703274 37.006388 -5.238163 16.203553 -33.671111 2.645516 58.032327 15.530329 -11.031962 -23.307278 0.696349 -7.811377 -48.649651 -13.600827 10.197910 0.000000 0.000000 0.000000 11.396419 42.107327 -7.402502 6.516604 13.201676 0.326554 3.372483 15.944189 -0.241034 1.173689 1.070571 0.768947 0.000000 0.000000 0.000000 2.795911 14.945721 -0.785720 17.294486 -31.069803 2.598648 -22.422837 -37.454155 -0.550726 0.000000 0.000000 0.000000 2.940180 15.895148 -1.226103 2.051752 -4.781420 -6.253403 -4.131793 -8.566366 -1.966793 -27.060760 13.537058 -25.013695 50.251368 -3.042498 18.892858 0.000000 0.000000 0.000000 3.932244 16.079059 -1.223265 0.197064 7.213438 -15.723932 -5.793627 3.969538 2.468411 -22.380933 -17.898045 4.469385 -32.853261 31.144454 12.595200 0.000000 0.000000 0.000000 
-8.664269 75.595085 14.505680 0.000000 0.000000 0.000000 8.966932 31.014619 -4.203365 -85.513634 -4.684650 -28.063383 76.451277 -32.538239 13.062783 16.799774 6.965697 1.773812 -0.765739 0.230136 1.324757 0.000000 0.000000 0.000000 11.235224 34.533621 -5.396543 15.281613 -31.628902 1.467461 56.503105 15.848214 -10.852376 -22.605437 0.701710 -7.415809 -48.502751 -13.234531 10.197347 0.000000 0.000000 0.000000 11.640186 40.108049 -7.852627 6.620073 12.736983 0.626939 3.643973 15.491677 -0.442788 0.798501 1.211960 0.653058 0.000000 0.000000 0.000000 3.034106 14.522362 -0.966184 15.561375 -30.493786 1.651103 -22.220255 -38.213638 0.513149 0.000000 0.000000 0.000000 3.136041 15.499661 -1.482555 1.841311 -4.440418 -5.739659 -5.120809 -8.868146 -1.418452 -20.498041 17.598628 -24.871937 50.252721 -2.127228 20.093160 0.000000 0.000000 0.000000 4.002680 15.721842 -1.326780 -0.292458 5.677279 -16.729954 -5.156703 3.422286 1.810127 -29.776254 -13.776154 6.300369 -31.068294 31.427767 14.040590 0.000000 0.000000 0.000000 
-8.076187 76.117416 14.482353 0.000000 0.000000 0.000000 9.206977 27.390869 -4.310215 -84.071050 -4.642629 -25.069714 75.444760 -31.127371 12.110304 15.173981 6.191033 2.564798 -1.714921 0.276788 1.852686 0.000000 0.000000 0.000000 11.367084 31.095553 -5.323154 14.305047 -29.271773 -0.047098 54.923972 16.587155 -10.722104 -21.279330 0.723180 -5.943468 -49.397646 -13.084588 10.196126 0.000000 0.000000 0.000000 11.342552 36.920349 -7.773948 6.924234 12.154517 0.948669 3.953577 15.038284 -0.564896 0.570596 1.486296 0.591453 0.000000 0.000000 0.000000 3.262115 14.113679 -1.065691 13.488546 -29.559952 0.782726 -22.122228 -38.146818 1.374811 0.000000 0.000000 0.000000 3.277969 15.136138 -1.620910 1.519099 -3.558606 -4.974383 -6.039461 -9.303340 -1.232476 -13.149079 21.812754 -25.705893 50.089032 -0.514194 21.076408 0.000000 0.000000 0.000000 4.122377 15.418022 -1.383242 -0.946251 3.980074 -17.817944 -3.769678 3.323409 1.302766 -38.140555 -7.506492 9.532335 -27.956198 30.011790 13.879790 0.000000 0.000000 0.000000 
-7.387771 76.765068 14.303204 0.000000 0.000000 0.000000 9.200973 22.811524 -4.099689 -82.280222 -4.566240 -21.830678 74.151068 -29.514501 10.935186 13.385350 5.173170 3.555603 -2.603102 0.327166 2.346722 0.000000 0.000000 0.000000 11.048937 26.854200 -4.914319 13.299877 -26.901923 -1.842490 53.692339 17.280611 -10.555613 -20.233527 0.731281 -4.245445 -50.059614 -13.160211 10.426405 0.000000 0.000000 0.000000 10.585664 32.612343 -7.147880 7.450804 11.520077 1.198977 4.222550 14.547973 -0.609570 0.393262 1.866755 0.748625 0.000000 0.000000 0.000000 3.355245 13.681744 -1.083699 11.445568 -28.127843 0.216258 -22.139111 -36.894073 1.783888 0.000000 0.000000 0.000000 3.308249 14.754643 -1.658203 1.133546 -2.255620 -4.211420 -6.546464 -9.502537 -1.331618 -4.875370 25.827172 -28.075446 49.661100 1.203463 22.064260 0.000000 0.000000 0.000000 4.257839 15.100684 -1.404144 -1.608406 2.368494 -18.226336 -2.384315 3.299251 1.108931 -46.054309 0.225974 14.491165 -23.915569 27.678647 12.437203 0.000000 0.000000 0.000000 
